<svg width="241" height="80" viewBox="0 0 241 80" fill="none" xmlns="http://www.w3.org/2000/svg">
<path d="M82.3786 61.4883C82.5919 61.1722 82.7582 60.812 82.8695 60.4245L85.7348 60.5795L86.9188 59.4469C87.5772 59.7485 87.8047 61.25 89.31 60.1879L90.0051 59.4543L95.8649 59.7714L96.7642 58.7563C98.6966 58.4353 100.793 58.9742 102.87 58.8207L103.702 57.8817L113.375 58.4052L114.58 57.3002L116.174 58.6099L117.775 57.287L134.449 58.1893L135.571 57L168.036 58.7568L169.213 60.2565L171.414 59.0725L176.972 59.3733L177.97 60.4379C179.276 61.3596 180.438 59.6406 181.783 59.4474L182.88 60.7567L190.464 61.1671L191.54 60.0551L192.219 60.9696C192.348 60.9766 192.445 61.3009 192.573 61.3079L208.193 62.1531L209.477 63.6852L211.42 62.4606L215.212 62.6658L216.036 63.7742L219.009 63.9351L220.039 62.8739L221.032 64.0978L222.949 64.2015L224.047 63.0641L225.735 65.3894C226.845 65.7154 227.868 66.1165 228.807 64.5717L233.783 64.8409L234.756 66.0371C235.803 66.3331 236.921 65.8351 238.142 66.7256L237.209 68.0582L241 70.7365C238.103 71.4574 226.033 70.9904 215.672 69.7649L214.973 68.7962L211.979 68.6342L210.926 69.7208L205.044 69.4026L204.074 68.1533L203.108 69.2445C201.754 69.2912 200.401 69.2179 199.058 69.0253L198.276 67.9459L193.256 67.6743L192.207 68.6281L188.415 68.423C188.025 67.9552 187.556 67.5985 187.043 67.3777C186.528 67.1569 185.981 67.0774 185.439 67.1449L184.319 68.2811L178.503 67.9664L177.359 69.1809L170.487 68.8091L169.766 69.6478C169.637 69.6408 169.497 69.9523 169.368 69.9453L138.044 68.2503L136.657 69.6114L134.765 68.1793C134.306 67.9298 133.791 67.8852 133.308 68.0533C132.826 68.2213 132.405 68.5915 132.121 69.0999L106.592 67.7185L105.384 68.9296L101.484 68.7186L100.513 67.496C100.2 67.3927 99.8698 67.4043 99.5624 67.5294C99.255 67.6546 98.984 67.8877 98.7829 68.2002C97.951 69.1391 97.33 68.3875 96.6549 67.3404L95.5195 68.3161L92.805 68.1692L91.532 69.3769L83.8196 68.9595L82.6111 70.1707L72.852 69.6426L71.7297 70.8584L62.8755 70.3792L61.9968 71.4221L59.0884 71.2647L57.8145 72.499L57.0108 71.4183L52.8961 71.1956L51.9069 72.3122L46.9734 72.0453L46.0282 73.1377L40.19 72.8217L39.0462 74.0364L35.1038 73.8231L34.2467 74.8671L30.2612 74.6513C29.834 75.1336 29.6073 75.4404 29.3395 75.6919C28.5563 76.4739 27.3912 75.2407 26.6586 76.4244C25.9261 77.6081 25.1515 76.9279 24.4817 76.9449C23.812 76.9618 23.2107 76.876 22.6917 77.5128C21.784 78.7669 20.0064 77.1549 19.2896 79.1106L14.3131 78.8414L13.2379 77.5066C13.0168 78.2659 12.7976 78.972 12.5559 79.7036C11.4474 80.0687 10.2836 80.0969 9.16415 79.7861L8.57988 77.3876L7.42205 78.3887L6.46677 77.3264L5.39417 78.3587L2.37812 78.1955L0.0348466 74.8773C-0.0547853 73.9838 0.0290949 73.0768 0.279553 72.2312L3.48949 72.4048L4.48882 73.4428L8.49588 73.6598L9.37267 72.67L12.238 72.8251L13.4248 71.6128L16.29 71.7677L17.4338 70.5532L22.3242 70.8178L23.2459 69.7773L26.1973 69.937L27.2325 68.7431L29.9685 68.8912L31.3493 67.6893L35.8302 67.9318L39.565 65.4744L46.028 65.8242L47.1492 64.6349L55.0126 65.0604C55.2599 64.7812 55.5071 64.5021 55.9137 63.9922L60.8471 64.2592L61.9488 63.0156L66.8606 63.2814L67.9622 62.0379L73.8652 62.3573L74.8328 61.2395L79.6585 61.5007L80.8003 60.3391C81.2221 60.807 81.695 61.1997 82.2053 61.5055C82.3757 62.1796 82.148 63.1247 83.1466 62.3543C82.9329 62.0134 82.673 61.7204 82.3786 61.4883Z" fill="#ADC9A6"/>
</svg>
